<?xml version="1.0" encoding="utf-8"?>
<!-- Generator: Adobe Illustrator 26.0.0, SVG Export Plug-In . SVG Version: 6.00 Build 0)  -->
<svg version="1.1" id="Capa_1" xmlns="http://www.w3.org/2000/svg" xmlns:xlink="http://www.w3.org/1999/xlink" x="0px" y="0px"
	 viewBox="0 0 1920 1080" style="enable-background:new 0 0 1920 1080;" xml:space="preserve">
<style type="text/css">
	.st0{fill:#020302;}
	.st1{fill:#FDB75A;}
	.st2{fill:#FEF2CA;}
	.st3{fill:#F4F1EA;}
	.st4{fill:#EFECDC;}
	.st5{fill:#EFE9D2;}
	.st6{fill:#F3D668;}
	.st7{fill:#FEE86E;}
	.st8{fill:#F3EFDF;}
	.st9{fill:#F3EFE1;}
	.st10{fill:#F3D065;}
	.st11{fill:#FBE56C;}
	.st12{fill:#EFECDE;}
	.st13{fill:#F4F1E2;}
	.st14{fill:#030302;}
</style>
<path class="st0" d="M1172.39,336.88c14.55-4.5,26.12-12.53,33.86-26.17c2.08-3.67,7.18-5.64,10.89-8.39
	c2.27,4.37,6.07,8.57,6.56,13.13c2.08,19.56-4.94,36.87-14.97,53.22c-0.6,0.97-0.71,2.72-0.27,3.77
	c19.23,45.72,22.4,90.96-3.7,135.46c-0.24,0.4,1.04,2.46,1.78,2.56c40.42,5.71,72.84,25.46,99.25,56.01
	c20.82,24.09,35.53,51.38,42.32,82.52c8.11,37.16,3.76,73.46-10.95,108.24c-22.55,53.31-62.62,90.13-112.53,117.56
	c-34.71,19.08-72.43,28.18-110.91,35.2c-15.9,2.9-31.56,7.34-47.54,9.44c-15.68,2.06-31.62,2.5-47.47,2.86
	c-28.75,0.66-57.51,0.51-86.26,1.1c-32.4,0.66-64.54-0.51-94.83-13.63c-25.55-11.07-44.7-28.36-50.01-57.17
	c-1.31-7.13-0.94-14.59-1.06-21.9c-0.05-2.74,0.36-4.03-3.22-2.26c-28.34,13.99-56.92,17.63-84.55-1.16
	c-18.2-12.38-33.14-28.07-40.45-49.54c-2.51-7.38,2.42-14.56,9.88-13.33c9.94,1.63,15.71-3.18,20.28-10.29
	c20.3-31.61,28.86-65.3,16.94-102.27c-0.22-0.69-2.78-1.52-3.16-1.15c-6.86,6.6-13.1,13.92-20.43,19.93
	c-4.76,3.91-11.18,8.53-16.62,8.25c-8.45-0.43-11.85-8.93-13.59-16.53c-4.92-21.48,0.25-41.74,9.52-60.92
	c5.2-10.76,12.32-20.6,18.47-30.91c0.21-0.34-0.47-1.72-0.99-1.91c-6.64-2.43-14.02-3.65-19.81-7.36c-6.08-3.89-4.9-11.7,1.58-15.22
	c16.8-9.13,26.84-23.25,31.67-41.44c0.24-0.9,0.28-1.84,0.41-2.77c-0.81,0.19-1.6,0.49-2.42,0.57c-10.13,1-20.27,2.81-30.38,2.66
	c-6.66-0.09-10.16-8.71-5.63-13.34c12.38-12.64,16.49-28.96,21.39-44.95c13.05-42.56,35.57-79.43,66.3-111.45
	c9.75-10.15,19.49-20.31,29.09-30.6c0.82-0.88,1.13-2.89,0.78-4.13c-4.83-16.98-7.15-34.04-1.68-51.3
	c3.44-10.84,10.31-14.23,19.67-8.09c10.07,6.61,18.92,15.05,28.38,22.6c0.69,0.55,2.32,0.92,2.89,0.51
	c31.54-22.75,66.64-36,105.23-40.82c32.62-4.07,62.88,3.91,92.75,15.64c20.04,7.87,40.76,13.01,62.54,11.38
	c16.52-1.23,31.03-7.4,43.45-18.62c3.6-3.26,8.22-7.55,12.39-7.57c8.61-0.05,9.16,8.45,8.47,14.12c-1.45,11.92-4.72,23.62-7.29,35.4
	c-0.21,0.98-0.7,1.9-1.05,2.85c0.99-0.46,2.04-0.83,2.96-1.4c15.52-9.64,27.54-22.59,37.09-38.14c1.87-3.04,6.2-6.28,9.39-6.27
	c2.67,0.01,6.54,4.14,7.79,7.28c12.8,32.07,5.22,61.04-14.35,87.91c-2.62,3.59-5.72,6.84-8.6,10.24c-0.25,0.35-0.5,0.69-0.75,1.04
	C1171.38,337.19,1171.89,337.03,1172.39,336.88z M1164.84,324.73c0.23-0.25,0.47-0.5,0.7-0.75l0.06,0c0.2-0.15,0.39-0.3,0.59-0.45
	c0.85-1.05,1.69-2.09,2.54-3.14c0,0-0.07,0.07-0.07,0.07c0.26-0.3,0.52-0.61,0.78-0.91c0.2-0.23,0.41-0.45,0.61-0.68
	c0.55-0.74,1.1-1.49,1.65-2.23l-0.04,0.04c0.75-1.03,1.5-2.06,2.25-3.09l-0.05,0.05c12.79-18.51,17.44-38.73,12.81-60.9
	c-0.32-1.52-0.84-3-1.27-4.5c-0.93,1.26-1.85,2.52-2.78,3.78c0,0,0.05-0.05,0.05-0.05c-0.53,0.75-1.07,1.51-1.6,2.26
	c0,0,0.06-0.06,0.06-0.06c-0.76,1.01-1.52,2.03-2.28,3.04c0,0,0.04-0.04,0.04-0.04c-0.32,0.33-0.63,0.66-0.95,0.99
	c-0.24,0.02-0.35,0.14-0.34,0.38c-0.59,0.79-1.19,1.59-1.78,2.38l0.05-0.05c-0.25,0.29-0.5,0.58-0.76,0.87c0,0,0.05-0.06,0.05-0.06
	c-0.32,0.32-0.64,0.63-0.96,0.95c-0.26,0.02-0.38,0.16-0.37,0.41c-0.88,0.99-1.75,1.98-2.63,2.98c0.07,0.06,0.13,0.13,0.2,0.19
	c-0.07-0.06-0.13-0.13-0.2-0.19c-1.76,1.71-3.53,3.41-5.29,5.12c0,0-0.07,0.08-0.07,0.08c-0.71,0.65-1.41,1.3-2.12,1.95
	c-0.15,0.19-0.31,0.37-0.46,0.56c0,0-0.02,0.05-0.02,0.05c-0.21,0.16-0.43,0.33-0.64,0.49c-0.31,0.32-0.62,0.64-0.93,0.96
	c0,0,0.06-0.05,0.06-0.05c-0.3,0.27-0.6,0.54-0.89,0.81c-0.27-0.02-0.45,0.09-0.55,0.34c-0.35,0.25-0.71,0.5-1.06,0.75
	c0,0-0.15,0.13-0.15,0.13c-0.64,0.58-1.28,1.16-1.92,1.74c0,0,0.04-0.04,0.04-0.04c-1.02,0.76-2.03,1.51-3.05,2.27
	c0,0,0.05-0.05,0.05-0.05c-0.47,0.3-0.94,0.61-1.41,0.91c-9.19,4.07-18.23,8.55-27.66,11.96c-2.66,0.96-6.46-1.22-9.73-1.96
	c0.94-3.16,1.06-6.99,2.97-9.38c8.79-11.03,13.18-23.65,14.91-37.39c0.1-0.76-0.21-1.69-0.64-2.33c-0.17-0.25-1.36-0.12-1.84,0.2
	c-5.73,3.91-11.42,7.88-17.12,11.84c-5.54,2.01-10.96,4.53-16.65,5.96c-26.51,6.66-51.71,0-76.89-7.66
	c-20.36-6.19-40.92-11.74-61.39-17.57c-19.08,1.8-38.67,1.5-57.1,5.97c-19.03,4.62-36.93,13.89-55.32,21.12
	c-0.58,0.3-1.15,0.61-1.73,0.91c0,0-0.01,0.01-0.01,0.01c-0.46,0.32-0.91,0.64-1.37,0.96l0.05-0.05c-2.75,1.78-5.5,3.56-8.24,5.35
	l0.04-0.03c-1.03,0.75-2.06,1.49-3.08,2.24c0,0,0.05-0.05,0.05-0.05c-0.56,0.34-1.12,0.69-1.68,1.03c-0.16,0.18-0.32,0.36-0.47,0.53
	l0,0.05c-0.26,0.16-0.51,0.32-0.77,0.48c0.98,1.64,1.95,3.28,2.93,4.91l-0.04-0.03c1.01,1.26,2.03,2.52,3.04,3.77
	c0,0-0.05-0.05-0.05-0.05c0.25,0.29,0.51,0.58,0.76,0.86c0,0-0.07-0.07-0.07-0.07c0.77,1.01,1.54,2.03,2.31,3.04l-0.05-0.05
	c0.77,1.02,1.53,2.03,2.3,3.05l-0.05-0.05c0.34,0.56,0.67,1.11,1.01,1.67c-0.02,0.25,0.09,0.38,0.34,0.4c0.6,0.81,1.2,1.61,1.8,2.42
	c0.2,0.24,0.39,0.48,0.59,0.72c0.54,0.76,1.08,1.53,1.62,2.29l-0.03-0.04c0.3,0.33,0.59,0.66,0.89,0.99
	c0.23,0.16,0.46,0.31,0.69,0.47l0.03,0.06c0.16,0.2,0.32,0.4,0.48,0.6c2.38,0.38,4.85,1.4,7.11,1.05
	c17.79-2.76,35.26-2.2,52.32,4.07c10.86,5.81,22.38,10.67,32.44,17.64c16.58,11.48,32.22,24.33,48.26,36.6
	c1.04,0.77,2.09,1.54,3.13,2.31l-0.04-0.04c1.02,0.76,2.03,1.52,3.05,2.28l-0.04-0.04c1.76,1.27,3.52,2.55,5.29,3.82
	c0,0-0.06-0.06-0.06-0.06c0.76,0.53,1.51,1.06,2.27,1.59l-0.04-0.05c1.04,0.74,2.08,1.47,3.12,2.21l-0.06-0.05
	c0.76,0.53,1.52,1.06,2.28,1.59l-0.06-0.06c0.77,0.52,1.55,1.03,2.32,1.55c0,0-0.06-0.06-0.06-0.06c0.81,0.58,1.63,1.16,2.44,1.75
	c0.04,0.26,0.19,0.37,0.45,0.32c0.56,0.32,1.13,0.63,1.69,0.95l-0.06-0.05c1.24,0.8,2.47,1.6,3.71,2.39l-0.04-0.05
	c0.79,0.49,1.58,0.98,2.37,1.47c0,0-0.06-0.05-0.06-0.05c3.05,1.84,6.1,3.68,9.14,5.52c0.06,0.26,0.22,0.35,0.47,0.3
	c3.06,1.57,6.12,3.15,9.18,4.72l-0.06-0.05c10,4.39,19.76,9.49,30.05,13.04c31.67,10.92,62.67,9.87,92.34-7.01
	c0,0-0.05,0.05-0.05,0.05c2.5-1.53,5.01-3.06,7.51-4.58l-0.04,0.04c0.57-0.33,1.14-0.66,1.71-0.99c0.22,0.01,0.34-0.09,0.36-0.3
	c1.08-0.82,2.17-1.65,3.25-2.47c0,0-0.06,0.06-0.06,0.06c0.81-0.58,1.62-1.15,2.43-1.73c0.27,0.01,0.41-0.12,0.43-0.39
	c0.33-0.29,0.66-0.58,0.99-0.87c0,0-0.03,0.03-0.03,0.03c0.55-0.39,1.1-0.78,1.65-1.17l0.21-0.2c0.28-0.35,0.55-0.7,0.83-1.05
	c0.39-0.47,0.73-1.01,1.19-1.4c15.55-13.01,25.3-29.51,29.54-49.29c0.26-1.22-0.12-2.58-0.2-3.87c-1.07,0.63-2.26,1.12-3.2,1.91
	c-3.05,2.55-5.79,5.53-9.05,7.77c-17.06,11.75-36.59,16.57-56.73,19.11c-2.09,0.26-5.99-2.97-6.61-5.24
	c-0.55-2.02,1.69-5.75,3.76-7.36c7.11-5.52,14.69-10.43,22.09-15.57c0,0,0.03-0.02,0.03-0.02c0.2-0.24,0.4-0.49,0.61-0.73
	c0,0,0.05-0.03,0.05-0.03c0.21-0.15,0.42-0.3,0.62-0.45c0.32-0.33,0.63-0.66,0.95-0.99c0.22-0.22,0.43-0.43,0.65-0.65
	c0.33-0.32,0.67-0.63,1-0.95c0.15-0.23,0.31-0.45,0.46-0.68L1164.84,324.73z M673.4,662c0,0-0.05,0.06-0.05,0.06
	c0.23-0.26,0.46-0.52,0.7-0.79c5.49-5.84,10.97-11.68,16.46-17.53c0.8-0.65,1.59-1.29,2.39-1.94l-0.04,0.04
	c0.56-0.34,1.11-0.68,1.67-1.02c0.23,0.01,0.35-0.09,0.37-0.32c0.82-0.58,1.64-1.15,2.46-1.73l-0.05,0.04
	c4.43-0.97,8.85-1.94,13.28-2.92c0,0-0.05-0.05-0.05-0.05c0.35,0.3,0.7,0.61,1.04,0.91c0.19,0.15,0.39,0.31,0.58,0.46
	c0,0,0.05,0.06,0.05,0.06c0.15,0.19,0.3,0.38,0.45,0.57c1.37,2.75,3.04,5.39,4.05,8.27c11.14,31.77,7.02,62.64-5.65,92.98
	c-3.1,5.75-5.93,11.67-9.34,17.23c-6.55,10.69-14.92,19.23-27.92,21.82c-0.62,0.12-1.58,2.15-1.35,2.42
	c9.85,11.54,18.93,23.94,30.03,34.14c10.54,9.69,24.3,13.94,38.94,11.91c10.09-1.4,20.01-3.99,30-6.05
	c2.28-1.16,4.56-2.32,6.84-3.48c0,0-0.05,0.04-0.05,0.04c2.92-2.27,8.36-4.5,8.4-6.81c0.56-34.97,0.42-69.96,0.44-104.94
	c0.05-5.74,0.11-11.48,0.14-17.21c0.68-114.3,1.4-228.59,1.89-342.89c0.02-4.92-2.18-9.85-3.35-14.77
	c-2.31-4.15-4.49-8.37-7.05-12.35c-0.4-0.62-3.13-0.69-3.81-0.03c-6.12,6.04-11.98,12.36-18.01,18.49
	c-31.23,31.79-55.06,68.07-68.98,110.73c-4.72,14.48-11.23,28.38-16.96,42.53c-0.41,1.02-1.12,1.93-1.68,2.89
	c1.18,0.19,2.49,0.79,3.54,0.5c8.34-2.34,16.66-4.77,24.94-7.32c5.72-1.76,9.84,1.38,9.11,7.28c-2.63,21.11-10.93,39.44-26.96,53.82
	c-3.09,2.77-6.63,5.06-9.96,7.57c4.91,0.3,9.82,0.62,14.74,0.87c0.67,0.03,1.39-0.57,2.05-0.49c4.24,0.47,8.48,1.05,12.71,1.59
	c-1.13,4.28-1.4,9.08-3.59,12.74c-4.18,6.99-9.46,13.32-14.28,19.93c-0.29,0.48-0.57,0.97-0.86,1.45c0,0,0.03-0.04,0.03-0.04
	c-0.3,0.49-0.61,0.98-0.91,1.46l0.06-0.06c-0.76,1.27-1.52,2.55-2.27,3.82c0,0,0.05-0.05,0.05-0.05c-2.02,4.01-4.04,8.02-6.06,12.03
	l0.05-0.05c-1.76,4.77-3.52,9.54-5.27,14.31c0,0,0.05-0.07,0.05-0.07c-0.36,0.89-0.84,1.75-1.05,2.67
	c-3.02,13.48-6.41,26.97,0.27,40.38c0,0-0.06-0.06-0.06-0.06c0.3,0.49,0.61,0.98,0.91,1.47c0,0-0.03-0.04-0.03-0.04
	c1.14-0.08,2.28-0.15,3.43-0.23c0.15-0.03,0.24-0.12,0.25-0.27c0.42-0.47,0.83-0.94,1.25-1.42c0,0,0.06-0.08,0.06-0.08
	c0.43-0.55,0.86-1.1,1.29-1.65c0,0-0.06,0.06-0.06,0.06C672.89,662.59,673.15,662.3,673.4,662z M1337.21,709.13
	c0,0-0.06,0.09-0.06,0.09c0.27-2.03,0.54-4.06,0.81-6.08c0,0-0.06,0.09-0.06,0.09c0.26-2.11,0.44-4.23,0.81-6.32
	c3.48-19.76-0.15-38.76-6.05-57.53c-10.09-32.78-28.4-60.35-54.05-82.82c-24.52-21.48-53.56-32.76-86-35.5
	c-6.41-0.54-8.59-5.05-4.86-10.08c17-22.94,25.24-48.73,22.4-77.03c-1.67-16.63-6.5-32.94-10.07-49.35
	c-0.09-0.41-2.59-0.98-2.99-0.56c-17.59,18.94-39.49,30.64-64.1,37.28c-20.46,5.52-41.19,3.27-60.93-2.81
	c-15.95-4.91-31.71-11.62-46.14-19.98c-19.32-11.18-37.52-24.36-55.74-37.33c-20.85-14.84-38.74-33.95-63.7-42.76
	c-14.26-5.04-28.79-8.71-43.74-5.48c-14.69,3.17-23.31-2.64-32.14-14.05c-11.35-14.66-25.02-27.64-38.49-40.51
	c-8.82-8.43-9.46-7.77-11.87,3.84c-0.27,1.31-0.52,2.65-0.58,3.98c-0.99,22.09,7.86,41.15,18.04,59.93
	c2.15,3.96,3.5,8.81,3.65,13.31c0.46,13.59,0.16,27.21,0.15,40.81c-0.04,36.95-0.08,73.9-0.13,110.85
	c-0.03,20.83-0.08,41.66-0.12,62.49c-0.15,8.9-0.3,17.8-0.46,26.7c-0.01,0.98-0.02,1.96-0.02,2.94
	c-0.25,22.75-0.51,45.49-0.76,68.24c-0.25,51.44-0.51,102.88-0.76,154.31c0,0.76,0,1.52,0,2.28c0,1.98-0.01,3.96-0.01,5.95
	c0.4,13.36-0.81,27.02,1.56,40.02c4.09,22.45,20.73,35.07,40.37,43.83c32.1,14.31,66.21,13.79,100.33,12.71
	c0.99-0.02,1.97-0.05,2.96-0.07c1.66-0.14,3.32-0.28,4.98-0.42c28.06-0.09,56.11-0.18,84.17-0.27c14.71-1.54,29.56-2.25,44.08-4.84
	c18.39-3.28,36.59-7.74,54.71-12.33c20.01-5.06,40.27-9.64,59.65-16.59c29.52-10.58,55.52-27.67,79.18-48.24
	c24.65-21.43,43.58-47.19,55.77-77.42c4.59-11.39,6.34-23.92,9.39-35.93C1336.66,712.68,1336.94,710.9,1337.21,709.13z"/>
<path class="st1" d="M801.5,380.23c0.01-13.61,0.31-27.22-0.15-40.81c-0.15-4.49-1.51-9.35-3.65-13.31
	c-10.18-18.77-19.03-37.84-18.04-59.93c0.06-1.33,0.31-2.67,0.58-3.98c2.42-11.6,3.05-12.26,11.87-3.84
	c13.47,12.87,27.14,25.85,38.49,40.51c8.83,11.41,17.44,17.22,32.14,14.05c14.95-3.23,29.48,0.45,43.74,5.48
	c24.96,8.82,42.85,27.92,63.7,42.76c18.22,12.97,36.43,26.15,55.74,37.33c14.43,8.35,30.19,15.06,46.14,19.98
	c19.74,6.08,40.47,8.34,60.93,2.81c24.61-6.64,46.5-18.34,64.1-37.28c0.39-0.42,2.9,0.14,2.99,0.56
	c3.57,16.42,8.4,32.73,10.07,49.35c2.84,28.3-5.39,54.1-22.4,77.03c-3.73,5.03-1.54,9.54,4.86,10.08c32.44,2.74,61.49,14.02,86,35.5
	c25.65,22.48,43.96,50.04,54.05,82.82c5.06,21.01,7.7,42.23,5.24,63.86c0,0,0.06-0.09,0.06-0.09c-0.27,2.03-0.54,4.05-0.81,6.08
	c0,0,0.06-0.09,0.06-0.09c-0.28,1.78-0.55,3.55-0.83,5.32c-3.05,12.01-4.8,24.54-9.39,35.93c-12.19,30.24-31.11,55.99-55.77,77.42
	c-23.66,20.57-49.66,37.65-79.18,48.24c-19.38,6.95-39.64,11.52-59.65,16.59c-18.12,4.58-36.32,9.05-54.71,12.33
	c-14.52,2.59-29.38,3.29-44.08,4.84c-0.7-0.2-1.39-0.59-2.09-0.59c-29.12-0.02-58.23-0.02-87.35,0.05c-0.89,0-1.78,0.84-2.67,1.29
	c-34.12,1.09-68.23,1.61-100.33-12.71c-19.65-8.76-36.29-21.38-40.37-43.83c-2.37-13-1.16-26.66-1.56-40.02
	c0-1.98,0.01-3.96,0.01-5.95c0-0.76,0-1.52,0-2.28c0.45-1.14,1.31-2.28,1.29-3.41c-0.12-8.82-0.65-17.65-0.61-26.47
	c0.14-29.64,0.42-59.29,0.73-88.93c0.1-9.95,0.53-19.89,0.63-29.84c0.02-1.88-0.83-3.78-1.28-5.67c0.25-22.75,0.51-45.49,0.76-68.24
	c0.44-1.39,1.26-2.79,1.26-4.18c0.07-64.95,0.08-129.89,0.06-194.84C802.09,382.87,801.71,381.55,801.5,380.23z M1019.17,728
	c22.65,0.09,43.53-5.8,62.45-18.22c15.23-10,25.97-23.49,25.19-42.36c-0.85-20.71-13.45-34.44-31.94-42.02
	c-21.94-8.99-44.85-5.24-66.62-0.07c-24.77,5.89-39.24,19.26-41.25,47.37c-0.82,11.56-2.46,23.4,4.05,33.77
	C982.17,724.16,999.99,727.82,1019.17,728z M1010.87,427.47c-24.44-0.06-38.62,11.74-38.66,32.16c-0.03,16.2,14.86,31.8,30.54,31.26
	c15.27-0.52,37.49-14.54,37.41-35.23C1040.1,440.71,1033.05,427.71,1010.87,427.47z"/>
<path class="st2" d="M690.5,643.75c-5.49,5.84-10.97,11.68-16.46,17.53c-0.23,0.26-0.46,0.52-0.7,0.79c0,0,0.05-0.06,0.05-0.05
	c-0.25,0.29-0.51,0.58-0.76,0.88c0,0,0.06-0.06,0.06-0.06c-0.43,0.55-0.86,1.1-1.29,1.65c0,0-0.06,0.08-0.06,0.08
	c-0.42,0.47-0.83,0.94-1.25,1.42c-0.02,0.16-0.1,0.25-0.25,0.27c-1.14,0.08-2.28,0.15-3.43,0.23c0,0,0.03,0.04,0.03,0.04
	c-0.3-0.49-0.61-0.98-0.91-1.47c0,0,0.06,0.06,0.06,0.06c-0.69-8.52-1.91-17.05-1.9-25.57c0.01-5.83,1.73-11.66,2.68-17.48
	c0,0-0.05,0.07-0.05,0.07c1.76-4.77,3.52-9.54,5.27-14.31c0,0-0.05,0.05-0.05,0.05c2.02-4.01,4.04-8.02,6.06-12.03
	c0,0-0.05,0.05-0.05,0.05c0.76-1.27,1.52-2.55,2.27-3.82c0,0-0.06,0.06-0.06,0.06c0.3-0.49,0.61-0.98,0.91-1.46
	c0,0-0.03,0.04-0.03,0.04c0.29-0.48,0.57-0.97,0.86-1.45c4.82-6.61,10.1-12.94,14.28-19.93c2.19-3.65,2.45-8.45,3.59-12.74
	c-4.24-0.54-8.47-1.12-12.71-1.59c-0.66-0.07-1.38,0.53-2.05,0.49c-4.91-0.24-9.83-0.57-14.74-0.87c3.33-2.51,6.86-4.79,9.96-7.57
	c16.03-14.38,24.33-32.71,26.96-53.82c0.74-5.9-3.38-9.04-9.11-7.28c-8.28,2.55-16.6,4.98-24.94,7.32c-1.05,0.29-2.35-0.31-3.54-0.5
	c0.57-0.96,1.27-1.87,1.68-2.89c5.73-14.15,12.24-28.05,16.96-42.53c13.92-42.66,37.75-78.95,68.98-110.73
	c6.03-6.14,11.89-12.45,18.01-18.49c0.67-0.67,3.41-0.59,3.81,0.03c2.57,3.98,4.75,8.21,7.05,12.35c0.72,2.99,2.08,5.98,2.07,8.97
	c-0.13,82.83-0.36,165.65-0.67,248.48c-0.11,28.92-0.5,57.84-0.72,86.76c-0.08,10.23-0.04,20.46-0.05,30.7
	c-0.3,7.79-0.78,15.58-0.85,23.38c-0.16,17.25,0.76,34.57-0.43,51.74c-0.85,12.3,7.43,26.73-6.85,36.6c0,0,0.05-0.04,0.05-0.04
	c-2.28,1.16-4.56,2.32-6.84,3.48c-9.99,2.06-19.91,4.65-30,6.05c-14.64,2.03-28.4-2.22-38.94-11.91
	c-11.1-10.21-20.18-22.61-30.03-34.14c-0.23-0.27,0.73-2.3,1.35-2.42c13-2.59,21.37-11.13,27.92-21.82
	c3.41-5.56,6.25-11.48,9.34-17.23c0.46-0.17,1.22-0.23,1.35-0.54c12.81-30.45,16.28-61.47,5.24-93.23
	c-0.95-2.74-3.29-4.99-4.99-7.47c-0.15-0.19-0.3-0.38-0.45-0.57c0,0,0.12-0.19,0.12-0.19l-0.17,0.13c-0.19-0.15-0.39-0.31-0.58-0.46
	c-0.35-0.3-0.7-0.61-1.04-0.91c0,0,0.05,0.05,0.05,0.05c-5.5-3.92-9.47-0.88-13.28,2.92c0,0,0.05-0.04,0.05-0.04
	c-0.82,0.58-1.64,1.15-2.46,1.73c-0.02,0.23-0.15,0.33-0.37,0.32c-0.56,0.34-1.11,0.68-1.67,1.02c0,0,0.04-0.04,0.04-0.04
	C692.09,642.46,691.29,643.1,690.5,643.75z"/>
<path class="st2" d="M1160.4,329.27c-7.4,5.14-14.98,10.06-22.09,15.57c-2.07,1.61-4.3,5.34-3.76,7.36
	c0.62,2.27,4.52,5.51,6.61,5.24c20.14-2.54,39.67-7.36,56.73-19.11c3.26-2.24,6-5.22,9.05-7.77c0.94-0.79,2.12-1.28,3.2-1.91
	c0.08,1.29,0.46,2.65,0.2,3.87c-4.24,19.78-13.99,36.27-29.54,49.29c-0.46,0.39-0.8,0.93-1.19,1.4c-0.28,0.35-0.55,0.7-0.83,1.05
	l-0.21,0.2c-0.55,0.39-1.1,0.78-1.65,1.17c0,0,0.03-0.03,0.03-0.03c-0.33,0.29-0.66,0.58-0.99,0.87c-0.02,0.27-0.16,0.4-0.43,0.39
	c-0.81,0.58-1.62,1.15-2.43,1.73c0,0,0.06-0.06,0.06-0.06c-1.08,0.82-2.17,1.65-3.25,2.47c-0.02,0.21-0.14,0.32-0.36,0.3
	c-0.57,0.33-1.14,0.66-1.71,0.99c0,0,0.04-0.04,0.04-0.04c-2.5,1.53-5.01,3.06-7.51,4.58c0,0,0.05-0.05,0.05-0.05
	c-1.18,0.28-2.48,0.33-3.54,0.86c-28.89,14.76-58.64,15.32-88.86,5c-10.17-3.47-20.01-7.9-30-11.89c0,0,0.06,0.05,0.06,0.05
	c-3.06-1.57-6.12-3.15-9.18-4.72c-0.26,0.06-0.41-0.04-0.47-0.3c-3.05-1.84-6.1-3.68-9.14-5.52c0,0,0.06,0.05,0.06,0.05
	c-0.79-0.49-1.58-0.98-2.37-1.47c0,0,0.04,0.05,0.04,0.05c-1.24-0.8-2.47-1.6-3.71-2.39c0,0,0.06,0.05,0.06,0.05
	c-0.56-0.32-1.13-0.63-1.69-0.95c-0.26,0.04-0.41-0.07-0.45-0.32c-0.81-0.58-1.63-1.16-2.44-1.75c0,0,0.06,0.06,0.06,0.06
	c-0.77-0.52-1.55-1.03-2.32-1.55c0,0,0.06,0.06,0.06,0.06c-0.76-0.53-1.52-1.06-2.28-1.59c0,0,0.06,0.05,0.06,0.05
	c-1.04-0.74-2.08-1.47-3.12-2.21c0,0,0.04,0.05,0.04,0.05c-0.76-0.53-1.51-1.06-2.27-1.59c0,0,0.06,0.06,0.06,0.06
	c-1.76-1.27-3.52-2.55-5.29-3.82c0,0,0.04,0.04,0.04,0.04c-1.02-0.76-2.03-1.52-3.05-2.28c0,0,0.04,0.04,0.04,0.04
	c-1.04-0.77-2.09-1.54-3.13-2.31c-16.04-12.27-31.67-25.11-48.26-36.6c-10.06-6.97-21.57-11.83-32.44-17.64
	c-1.64-0.92-3.2-2.1-4.94-2.72c-17.91-6.36-36.26-3-54.49-2.4c-0.16-0.2-0.32-0.4-0.48-0.6c0,0,0.12-0.16,0.12-0.16l-0.15,0.1
	c-0.23-0.16-0.46-0.31-0.69-0.47c-0.3-0.33-0.59-0.66-0.89-0.99c0,0,0.03,0.04,0.03,0.04c-0.54-0.76-1.08-1.53-1.62-2.29
	c-0.2-0.24-0.39-0.48-0.59-0.72c-0.6-0.81-1.2-1.61-1.8-2.42c-0.25-0.02-0.36-0.15-0.34-0.4c-0.34-0.56-0.67-1.11-1.01-1.67
	c0,0,0.05,0.05,0.05,0.05c-0.77-1.02-1.53-2.03-2.3-3.05c0,0,0.05,0.05,0.05,0.05c-0.77-1.01-1.54-2.03-2.31-3.04
	c0,0,0.07,0.07,0.07,0.07c-0.25-0.29-0.51-0.58-0.76-0.86c0,0,0.05,0.05,0.05,0.05c-1.01-1.26-2.03-2.52-3.04-3.77
	c0,0,0.04,0.03,0.04,0.03c-0.98-1.64-1.95-3.28-2.93-4.91c0.26-0.16,0.51-0.32,0.77-0.48c0,0,0.13,0.11,0.13,0.11l-0.13-0.17
	c0.16-0.18,0.32-0.36,0.47-0.53c0.56-0.34,1.12-0.69,1.68-1.03c0,0-0.05,0.05-0.05,0.05c1.03-0.75,2.06-1.49,3.08-2.24
	c0,0-0.04,0.03-0.04,0.03c2.75-1.78,5.5-3.56,8.24-5.35c0,0-0.05,0.05-0.05,0.05c0.46-0.32,0.91-0.64,1.37-0.96
	c0,0,0.01-0.01,0.01-0.01c0.58-0.3,1.15-0.61,1.73-0.91c18.39-7.23,36.3-16.5,55.32-21.12c18.43-4.48,38.02-4.18,57.1-5.97
	c0.51,0.45,0.95,1.14,1.54,1.31c21.52,6.32,43.06,12.53,64.57,18.89c21.67,6.4,43.5,12.07,66.25,7.21
	c7.75-1.66,15.06-5.37,22.58-8.14c5.7-3.96,11.39-7.93,17.12-11.84c0.48-0.32,1.66-0.45,1.84-0.2c0.44,0.63,0.74,1.57,0.64,2.33
	c-1.73,13.74-6.12,26.37-14.91,37.39c-1.91,2.39-2.03,6.22-2.97,9.38c3.28,0.74,7.07,2.92,9.73,1.96
	c9.43-3.41,18.47-7.89,27.66-11.96c0.47-0.3,0.94-0.61,1.41-0.91c0,0-0.05,0.05-0.05,0.05c1.02-0.76,2.03-1.51,3.05-2.27
	c0,0-0.04,0.04-0.04,0.04c0.64-0.58,1.28-1.16,1.92-1.74c0,0,0.15-0.13,0.15-0.13c0.35-0.25,0.71-0.5,1.06-0.75
	c0.1-0.25,0.28-0.37,0.55-0.34c0.3-0.27,0.6-0.54,0.89-0.81c0,0-0.06,0.05-0.06,0.05c0.31-0.32,0.62-0.64,0.93-0.96
	c0.21-0.16,0.43-0.33,0.65-0.49c0,0,0.15,0.12,0.15,0.12l-0.12-0.17c0.15-0.19,0.31-0.37,0.46-0.56c0.71-0.65,1.41-1.3,2.12-1.95
	c0,0,0.07-0.08,0.07-0.08c1.76-1.71,3.53-3.41,5.29-5.12c0.07,0.06,0.13,0.13,0.2,0.19c-0.07-0.06-0.13-0.13-0.2-0.19
	c0.88-0.99,1.75-1.98,2.63-2.98c-0.01-0.26,0.11-0.4,0.37-0.41c0.32-0.32,0.64-0.63,0.96-0.95c0,0-0.05,0.06-0.05,0.05
	c0.25-0.29,0.5-0.58,0.76-0.87c0,0-0.05,0.05-0.05,0.05c0.59-0.79,1.19-1.59,1.78-2.38c-0.01-0.24,0.1-0.37,0.34-0.38
	c0.32-0.33,0.63-0.66,0.95-0.99c0,0-0.04,0.04-0.04,0.04c0.76-1.01,1.52-2.03,2.28-3.04c0,0-0.06,0.06-0.06,0.06
	c0.53-0.75,1.07-1.51,1.6-2.26c0,0-0.05,0.05-0.05,0.05c1.04,0.54,2.96,1.05,2.98,1.63c0.31,9.25,1.98,18.85,0.08,27.67
	c-2.39,11.11-7.75,21.58-11.83,32.33c0,0,0.05-0.05,0.05-0.05c-0.75,1.03-1.5,2.06-2.25,3.09c0,0,0.04-0.04,0.04-0.04
	c-0.55,0.74-1.1,1.49-1.65,2.23c-0.2,0.23-0.41,0.45-0.61,0.68c-0.26,0.3-0.52,0.61-0.78,0.91c0,0,0.07-0.07,0.07-0.07
	c-0.85,1.05-1.69,2.09-2.54,3.14c-0.2,0.15-0.39,0.3-0.59,0.45c0,0-0.16-0.13-0.16-0.13l0.1,0.13c-0.23,0.25-0.47,0.5-0.7,0.75
	c0,0-0.16-0.12-0.16-0.12l0.1,0.15c-0.16,0.23-0.31,0.45-0.46,0.68c-0.34,0.32-0.67,0.63-1,0.95c-0.22,0.22-0.43,0.43-0.65,0.65
	c-0.32,0.33-0.63,0.66-0.95,0.99c-0.21,0.15-0.42,0.3-0.62,0.45c0,0-0.16-0.12-0.16-0.12s0.1,0.15,0.1,0.15
	c-0.2,0.24-0.4,0.49-0.61,0.73c-0.09-0.05-0.18-0.11-0.27-0.16C1160.24,329.15,1160.32,329.21,1160.4,329.27z"/>
<path class="st3" d="M786.34,705.41c0.01-10.23-0.03-20.46,0.05-30.7c0.22-28.92,0.62-57.84,0.72-86.76
	c0.31-82.83,0.54-165.65,0.67-248.48c0-2.99-1.35-5.98-2.07-8.97c1.17,4.92,3.37,9.85,3.35,14.77
	c-0.48,114.3-1.2,228.59-1.89,342.89c-0.03,5.74-0.09,11.48-0.14,17.21C786.81,705.4,786.58,705.41,786.34,705.41z"/>
<path class="st4" d="M1113.65,254.98c-7.51,2.77-14.83,6.49-22.58,8.14c-22.75,4.86-44.58-0.81-66.25-7.21
	c-21.5-6.36-43.05-12.57-64.57-18.89c-0.59-0.17-1.03-0.86-1.54-1.31c20.47,5.83,41.03,11.38,61.39,17.57
	c25.18,7.66,50.39,14.32,76.89,7.66C1102.69,259.51,1108.11,257,1113.65,254.98z"/>
<path class="st5" d="M786.34,705.41c0.23-0.01,0.47-0.02,0.7-0.03c-0.02,34.98,0.12,69.96-0.44,104.94
	c-0.04,2.32-5.47,4.54-8.4,6.81c14.29-9.87,6-24.29,6.85-36.6c1.19-17.17,0.27-34.49,0.43-51.74
	C785.56,721,786.04,713.21,786.34,705.41z"/>
<path class="st6" d="M800.01,651.45c0.45,1.89,1.29,3.78,1.28,5.67c-0.1,9.95-0.53,19.89-0.63,29.84
	c-0.31,29.64-0.59,59.28-0.73,88.93c-0.04,8.82,0.49,17.65,0.61,26.47c0.02,1.13-0.84,2.27-1.29,3.41
	C799.5,754.33,799.76,702.89,800.01,651.45z"/>
<path class="st7" d="M801.5,380.23c0.21,1.32,0.59,2.64,0.59,3.96c0.02,64.95,0.01,129.89-0.06,194.84c0,1.4-0.82,2.79-1.26,4.18
	c0.01-0.98,0.02-1.96,0.02-2.94c0.15-8.9,0.3-17.8,0.46-26.7c0.04-20.83,0.09-41.66,0.12-62.49
	C801.42,454.13,801.46,417.18,801.5,380.23z"/>
<path class="st8" d="M1038.02,390.77c9.99,3.99,19.83,8.42,30,11.89c30.22,10.32,59.97,9.76,88.86-5c1.05-0.54,2.35-0.59,3.54-0.86
	c-29.68,16.88-60.67,17.93-92.34,7.01C1057.79,400.26,1048.03,395.16,1038.02,390.77z"/>
<path class="st9" d="M712.65,637.86c1.7,2.48,4.04,4.74,4.99,7.47c11.04,31.76,7.58,62.78-5.24,93.23
	c-0.13,0.31-0.89,0.37-1.35,0.54c12.67-30.34,16.79-61.21,5.65-92.98C715.7,643.25,714.02,640.61,712.65,637.86z"/>
<path class="st4" d="M1173.85,313.64c4.08-10.75,9.43-21.22,11.83-32.33c1.9-8.82,0.22-18.42-0.08-27.67
	c-0.02-0.57-1.94-1.09-2.98-1.63c0.93-1.26,1.85-2.52,2.78-3.78c0.43,1.5,0.95,2.98,1.27,4.5
	C1191.29,274.91,1186.65,295.13,1173.85,313.64z"/>
<path class="st10" d="M1337.9,703.22c2.46-21.63-0.18-42.84-5.24-63.86c5.9,18.77,9.53,37.77,6.05,57.53
	C1338.34,698.99,1338.17,701.11,1337.9,703.22z"/>
<path class="st11" d="M941.51,910.55c0.89-0.45,1.78-1.29,2.67-1.29c29.12-0.07,58.23-0.07,87.35-0.05c0.7,0,1.39,0.38,2.09,0.59
	c-28.06,0.09-56.11,0.18-84.17,0.27c-1.66,0.14-3.32,0.28-4.98,0.42C943.48,910.5,942.49,910.53,941.51,910.55z"/>
<path class="st12" d="M847.57,299.2c18.23-0.61,36.58-3.96,54.49,2.4c1.75,0.62,3.3,1.8,4.94,2.72
	c-17.06-6.27-34.53-6.83-52.32-4.07C852.42,300.6,849.95,299.58,847.57,299.2z"/>
<path class="st13" d="M666.38,622.05c-0.95,5.83-2.67,11.66-2.68,17.48c-0.01,8.52,1.21,17.05,1.9,25.57
	c-6.68-13.41-3.29-26.9-0.27-40.38C665.53,623.8,666.02,622.94,666.38,622.05z"/>
<path class="st1" d="M801.25,553.57c-0.15,8.9-0.3,17.8-0.46,26.7C800.95,571.37,801.1,562.47,801.25,553.57z"/>
<path class="st9" d="M697.3,638.83c3.81-3.79,7.78-6.83,13.28-2.92C706.15,636.89,701.73,637.86,697.3,638.83z"/>
<path class="st13" d="M671.6,607.81c-1.76,4.77-3.52,9.54-5.27,14.31C668.09,617.35,669.85,612.58,671.6,607.81z"/>
<path class="st13" d="M677.62,595.83c-2.02,4.01-4.04,8.02-6.06,12.03C673.58,603.85,675.6,599.84,677.62,595.83z"/>
<path class="st8" d="M1019.29,380.28c3.05,1.84,6.1,3.68,9.14,5.52C1025.39,383.96,1022.34,382.12,1019.29,380.28z"/>
<path class="st8" d="M1028.9,386.09c3.06,1.57,6.12,3.15,9.18,4.72C1035.02,389.24,1031.96,387.66,1028.9,386.09z"/>
<path class="st12" d="M843.24,264.65c-2.75,1.78-5.49,3.56-8.24,5.35C837.74,268.21,840.49,266.43,843.24,264.65z"/>
<path class="st8" d="M1160.37,396.85c2.5-1.53,5.01-3.06,7.51-4.58C1165.37,393.79,1162.87,395.32,1160.37,396.85z"/>
<path class="st4" d="M1171.2,266.03c-1.76,1.71-3.53,3.41-5.29,5.12C1167.67,269.44,1169.43,267.73,1171.2,266.03z"/>
<path class="st5" d="M771.41,820.58c2.28-1.16,4.56-2.32,6.84-3.48C775.97,818.26,773.69,819.42,771.41,820.58z"/>
<path class="st6" d="M799.25,808.05c0,1.98-0.01,3.96-0.01,5.95C799.24,812.01,799.25,810.03,799.25,808.05z"/>
<path class="st12" d="M829.08,274.25c0.98,1.64,1.95,3.28,2.93,4.91C831.03,277.52,830.06,275.89,829.08,274.25z"/>
<path class="st8" d="M993.79,363.07c1.76,1.27,3.52,2.55,5.29,3.82C997.32,365.62,995.56,364.34,993.79,363.07z"/>
<path class="st10" d="M1337.15,709.21c0.27-2.03,0.54-4.05,0.81-6.08C1337.69,705.16,1337.42,707.19,1337.15,709.21z"/>
<path class="st12" d="M831.97,279.13c1.01,1.26,2.03,2.52,3.04,3.77C834,281.64,832.99,280.38,831.97,279.13z"/>
<path class="st8" d="M1169.9,391.01c1.08-0.82,2.17-1.65,3.25-2.47C1172.07,389.36,1170.99,390.19,1169.9,391.01z"/>
<path class="st8" d="M1013.31,376.52c1.24,0.8,2.47,1.6,3.71,2.39C1015.79,378.11,1014.55,377.31,1013.31,376.52z"/>
<path class="st4" d="M1181.13,254.17c-0.76,1.01-1.52,2.03-2.28,3.04C1179.61,256.19,1180.37,255.18,1181.13,254.17z"/>
<path class="st4" d="M1173.83,263.05c-0.88,0.99-1.75,1.98-2.63,2.98C1172.08,265.03,1172.95,264.04,1173.83,263.05z"/>
<path class="st4" d="M1157.18,278.91c-1.02,0.76-2.03,1.51-3.05,2.27C1155.15,280.42,1156.16,279.67,1157.18,278.91z"/>
<path class="st8" d="M987.69,358.56c1.04,0.77,2.09,1.54,3.13,2.31C989.78,360.1,988.74,359.33,987.69,358.56z"/>
<path class="st8" d="M990.79,360.83c1.02,0.76,2.03,1.52,3.05,2.28C992.82,362.35,991.8,361.59,990.79,360.83z"/>
<path class="st13" d="M679.84,592.06c-0.76,1.27-1.52,2.55-2.27,3.82C678.33,594.61,679.08,593.34,679.84,592.06z"/>
<path class="st12" d="M835.03,269.96c-1.03,0.75-2.06,1.49-3.08,2.24C832.98,271.45,834.01,270.71,835.03,269.96z"/>
<path class="st4" d="M1166.18,323.52c0.85-1.05,1.69-2.09,2.54-3.14C1167.88,321.43,1167.03,322.48,1166.18,323.52z"/>
<path class="st10" d="M1336.39,714.45c0.28-1.77,0.55-3.55,0.83-5.32C1336.94,710.9,1336.66,712.68,1336.39,714.45z"/>
<path class="st13" d="M666.41,666.47c1.14-0.08,2.28-0.15,3.43-0.23C668.7,666.32,667.56,666.39,666.41,666.47z"/>
<path class="st4" d="M1177.6,258.54c-0.59,0.79-1.19,1.59-1.78,2.38C1176.41,260.12,1177,259.33,1177.6,258.54z"/>
<path class="st12" d="M835.66,283.64c0.77,1.01,1.54,2.03,2.31,3.04C837.2,285.67,836.43,284.66,835.66,283.64z"/>
<path class="st12" d="M837.93,286.63c0.77,1.02,1.53,2.03,2.3,3.05C839.46,288.67,838.69,287.65,837.93,286.63z"/>
<path class="st4" d="M1171.65,316.68c0.75-1.03,1.5-2.06,2.25-3.09C1173.15,314.62,1172.4,315.65,1171.65,316.68z"/>
<path class="st8" d="M1001.25,368.37c1.04,0.74,2.08,1.47,3.12,2.21C1003.33,369.85,1002.29,369.11,1001.25,368.37z"/>
<path class="st1" d="M944.46,910.48c1.66-0.14,3.32-0.28,4.98-0.42C947.78,910.2,946.12,910.34,944.46,910.48z"/>
<path class="st9" d="M694.88,640.51c0.82-0.58,1.64-1.15,2.46-1.73C696.53,639.36,695.71,639.94,694.88,640.51z"/>
<path class="st8" d="M1173.09,388.6c0.81-0.58,1.62-1.15,2.43-1.73C1174.71,387.45,1173.9,388.02,1173.09,388.6z"/>
<path class="st8" d="M1008.79,373.55c0.81,0.58,1.63,1.16,2.44,1.75C1010.42,374.71,1009.6,374.13,1008.79,373.55z"/>
<path class="st9" d="M690.5,643.75c0.8-0.65,1.59-1.29,2.39-1.94C692.09,642.46,691.29,643.1,690.5,643.75z"/>
<path class="st12" d="M841.52,291.7c0.6,0.81,1.2,1.61,1.8,2.42C842.71,293.31,842.11,292.5,841.52,291.7z"/>
<path class="st4" d="M1165.84,271.22c-0.71,0.65-1.41,1.3-2.12,1.95C1164.43,272.52,1165.13,271.87,1165.84,271.22z"/>
<path class="st4" d="M1170.04,318.87c0.55-0.74,1.1-1.49,1.65-2.23C1171.14,317.38,1170.59,318.13,1170.04,318.87z"/>
<path class="st8" d="M999.02,366.83c0.76,0.53,1.51,1.06,2.27,1.59C1000.53,367.89,999.78,367.36,999.02,366.83z"/>
<path class="st8" d="M1016.98,378.86c0.79,0.49,1.58,0.98,2.37,1.47C1018.56,379.84,1017.77,379.35,1016.98,378.86z"/>
<path class="st9" d="M692.84,641.85c0.56-0.34,1.11-0.68,1.67-1.02C693.95,641.17,693.4,641.51,692.84,641.85z"/>
<path class="st4" d="M1182.67,251.96c-0.53,0.75-1.07,1.51-1.6,2.26C1181.61,253.47,1182.14,252.72,1182.67,251.96z"/>
<path class="st13" d="M681.52,589.25c-0.29,0.48-0.57,0.97-0.86,1.45C680.95,590.21,681.23,589.73,681.52,589.25z"/>
<path class="st8" d="M1004.31,370.53c0.76,0.53,1.52,1.06,2.28,1.59C1005.83,371.59,1005.07,371.06,1004.31,370.53z"/>
<path class="st8" d="M1176.92,385.64c0.55-0.39,1.1-0.78,1.65-1.17C1178.02,384.86,1177.47,385.25,1176.92,385.64z"/>
<path class="st12" d="M843.9,294.83c0.54,0.76,1.08,1.53,1.62,2.29C844.98,296.36,844.44,295.6,843.9,294.83z"/>
<path class="st4" d="M1159.07,277.21c-0.64,0.58-1.28,1.16-1.92,1.74C1157.78,278.37,1158.43,277.79,1159.07,277.21z"/>
<path class="st8" d="M1006.53,372.06c0.77,0.52,1.55,1.03,2.32,1.55C1008.08,373.09,1007.3,372.58,1006.53,372.06z"/>
<path class="st8" d="M1167.84,392.3c0.57-0.33,1.14-0.66,1.71-0.99C1168.97,391.64,1168.41,391.97,1167.84,392.3z"/>
<path class="st13" d="M671.41,664.48c0.43-0.55,0.86-1.1,1.29-1.65C672.27,663.37,671.84,663.93,671.41,664.48z"/>
<path class="st8" d="M1011.68,375.62c0.56,0.32,1.13,0.63,1.69,0.95C1012.81,376.25,1012.24,375.93,1011.68,375.62z"/>
<path class="st12" d="M846.3,262.81c-0.58,0.3-1.15,0.61-1.73,0.91C845.14,263.42,845.72,263.12,846.3,262.81z"/>
<path class="st12" d="M840.17,289.63c0.34,0.56,0.67,1.11,1.01,1.67C840.84,290.74,840.5,290.19,840.17,289.63z"/>
<path class="st4" d="M1154.18,281.13c-0.47,0.3-0.94,0.61-1.41,0.91C1153.24,281.74,1153.71,281.44,1154.18,281.13z"/>
<path class="st13" d="M670.1,665.97c0.42-0.47,0.83-0.94,1.25-1.42C670.93,665.03,670.51,665.5,670.1,665.97z"/>
<path class="st12" d="M832,272.15c-0.56,0.34-1.12,0.69-1.68,1.03C830.88,272.83,831.44,272.49,832,272.15z"/>
<path class="st8" d="M1178.78,384.27c0.28-0.35,0.55-0.7,0.83-1.05C1179.33,383.57,1179.06,383.92,1178.78,384.27z"/>
<path class="st4" d="M1161.71,328.03c0.32-0.33,0.63-0.66,0.95-0.99C1162.35,327.37,1162.03,327.7,1161.71,328.03z"/>
<path class="st9" d="M710.53,635.86c0.35,0.3,0.7,0.61,1.04,0.91C711.22,636.47,710.87,636.17,710.53,635.86z"/>
<path class="st4" d="M1162.59,274.27c-0.31,0.32-0.62,0.64-0.93,0.96C1161.97,274.91,1162.28,274.59,1162.59,274.27z"/>
<path class="st13" d="M680.69,590.66c-0.3,0.49-0.61,0.98-0.91,1.46C680.08,591.64,680.39,591.15,680.69,590.66z"/>
<path class="st12" d="M845.49,297.08c0.3,0.33,0.59,0.66,0.89,0.99C846.08,297.74,845.78,297.41,845.49,297.08z"/>
<path class="st8" d="M1175.95,386.48c0.33-0.29,0.66-0.58,0.99-0.87C1176.61,385.9,1176.28,386.19,1175.95,386.48z"/>
<path class="st13" d="M665.54,665.04c0.3,0.49,0.61,0.98,0.91,1.47C666.14,666.02,665.84,665.53,665.54,665.04z"/>
<path class="st4" d="M1163.31,326.39c0.33-0.32,0.67-0.63,1-0.95C1163.98,325.76,1163.64,326.08,1163.31,326.39z"/>
<path class="st4" d="M1160.28,276.33c-0.35,0.25-0.71,0.5-1.06,0.75C1159.57,276.83,1159.92,276.58,1160.28,276.33z"/>
<path class="st13" d="M673.35,662.06c0.23-0.26,0.46-0.52,0.7-0.79C673.81,661.54,673.58,661.8,673.35,662.06z"/>
<path class="st12" d="M844.56,263.74c-0.46,0.32-0.91,0.64-1.37,0.96C843.64,264.38,844.1,264.06,844.56,263.74z"/>
<path class="st4" d="M1175.16,261.68c-0.32,0.32-0.64,0.63-0.96,0.95C1174.52,262.32,1174.84,262,1175.16,261.68z"/>
<path class="st4" d="M1178.89,257.17c-0.32,0.33-0.63,0.66-0.95,0.99C1178.26,257.82,1178.57,257.5,1178.89,257.17z"/>
<polygon class="st4" points="1161.03,328.51 1160.93,328.36 1161.09,328.48 "/>
<polygon class="st4" points="1165.54,323.98 1165.44,323.85 1165.6,323.97 "/>
<path class="st4" d="M1160.4,329.27c-0.08-0.06-0.16-0.12-0.24-0.18c0.09,0.05,0.18,0.11,0.27,0.16
	C1160.43,329.24,1160.4,329.27,1160.4,329.27z"/>
<polygon class="st9" points="712.15,637.23 712.33,637.1 712.21,637.29 "/>
<polygon class="st4" points="1163.26,273.73 1163.38,273.9 1163.24,273.78 "/>
<polygon class="st12" points="847.06,298.54 847.21,298.44 847.09,298.6 "/>
<polygon class="st12" points="829.85,273.71 829.97,273.88 829.84,273.77 "/>
<path class="st4" d="M1168.65,320.45c0.26-0.3,0.52-0.61,0.78-0.91C1169.17,319.85,1168.91,320.15,1168.65,320.45z"/>
<polygon class="st4" points="1164.78,324.76 1164.67,324.61 1164.84,324.73 "/>
<path class="st12" d="M834.97,282.85c0.25,0.29,0.51,0.58,0.76,0.86C835.48,283.43,835.23,283.14,834.97,282.85z"/>
<path class="st4" d="M1161.72,275.18c-0.3,0.27-0.6,0.54-0.89,0.81C1161.12,275.72,1161.42,275.45,1161.72,275.18z"/>
<path class="st4" d="M1175.87,260.87c-0.25,0.29-0.5,0.58-0.76,0.87C1175.36,261.45,1175.61,261.16,1175.87,260.87z"/>
<path class="st13" d="M672.64,662.88c0.25-0.29,0.51-0.58,0.76-0.88C673.15,662.3,672.89,662.59,672.64,662.88z"/>
<path class="st14" d="M1019.17,728c-19.18-0.18-37-3.84-48.12-21.53c-6.52-10.37-4.88-22.22-4.05-33.77
	c2.01-28.11,16.47-41.49,41.25-47.37c21.78-5.17,44.69-8.93,66.62,0.07c18.49,7.58,31.09,21.31,31.94,42.02
	c0.78,18.87-9.97,32.36-25.19,42.36C1062.7,722.2,1041.82,728.09,1019.17,728z M1019.96,716.01c19.21-0.91,37.05-5.73,53.49-15.21
	c14.08-8.11,22.36-19.98,20.82-36.94c-1.17-12.81-13.36-26.27-29.49-28.65c-13.64-2.01-28.02-1.33-41.76,0.48
	c-10.35,1.37-21.14,4.86-30.08,10.18c-14.61,8.69-14.43,24.62-14.68,39.48c-0.25,15.02,5.25,22.63,19.64,26.65
	C1005.07,714.01,1012.6,714.72,1019.96,716.01z"/>
<path class="st14" d="M1010.87,427.47c22.18,0.24,29.23,13.25,29.29,28.19c0.08,20.69-22.14,34.71-37.41,35.23
	c-15.68,0.54-30.57-15.06-30.54-31.26C972.25,439.21,986.43,427.41,1010.87,427.47z M1008.27,440.05c-1.1,0.15-3.42,0.45-5.72,0.81
	c-8.57,1.34-15.13,5.51-17.25,14.27c-1.78,7.33,0.01,14.05,6.63,18.58c7.05,4.81,14.53,4.65,21.82,0.74
	c9.99-5.36,15.73-15.41,13.65-23.1C1024.9,442.09,1017.8,440.17,1008.27,440.05z"/>
</svg>
